Coordinates
version=1
nRows=8
nColumns=63
inDegrees=yes

Units are S.I. units (second, meters, Newtons, ...)
If the header above contains a line with 'inDegrees', this indicates whether rotational values are in degrees (yes) or radians (no).

endheader
time	pelvis_tilt	pelvis_list	pelvis_rotation	pelvis_tx	pelvis_ty	pelvis_tz	hip_flexion_r	hip_adduction_r	hip_rotation_r	knee_angle_r	knee_angle_r_beta	ankle_angle_r	subtalar_angle_r	mtp_angle_r	hip_flexion_l	hip_adduction_l	hip_rotation_l	knee_angle_l	knee_angle_l_beta	ankle_angle_l	subtalar_angle_l	mtp_angle_l	L5_S1_Flex_Ext	L5_S1_Lat_Bending	L5_S1_axial_rotation	L4_L5_Flex_Ext	L4_L5_Lat_Bending	L4_L5_axial_rotation	L3_L4_Flex_Ext	L3_L4_Lat_Bending	L3_L4_axial_rotation	L2_L3_Flex_Ext	L2_L3_Lat_Bending	L2_L3_axial_rotation	L1_L2_Flex_Ext	L1_L2_Lat_Bending	L1_L2_axial_rotation	L1_T12_Flex_Ext	L1_T12_Lat_Bending	L1_T12_axial_rotation	Abs_r3	Abs_r2	Abs_r1	Abs_t1	Abs_t2	neck_flexion	neck_bending	neck_rotation	arm_flex_r	arm_add_r	arm_rot_r	elbow_flex_r	pro_sup_r	wrist_flex_r	wrist_dev_r	arm_flex_l	arm_add_l	arm_rot_l	elbow_flex_l	pro_sup_l	wrist_flex_l	wrist_dev_l
0.000000	1.712082	-6.416673	101.437401	0.187210	0.990161	0.497159	0.200583	2.561815	-9.666704	9.479771	0.165453	26.270991	-7.154669	0.000000	0.096786	-1.059701	7.296570	7.949040	0.138737	28.547962	3.725770	0.000000	-0.066334	0.043392	-2.552859	-0.123188	0.057712	-2.712413	-0.108980	0.105504	-2.712413	-0.075813	0.105504	-2.233752	-0.061597	0.088485	-2.074198	-0.037903	0.067214	-1.914644	-0.473815	0.490861	-14.198235	0.000000	0.000000	21.064816	2.778490	5.787886	12.248207	-6.821589	70.735758	37.291314	72.905255	9.034661	-1.705264	4.265664	-4.509342	37.763569	47.474917	85.630420	13.134656	15.768680
0.016667	1.460631	-6.816523	101.401837	0.187064	0.989906	0.498247	0.622193	2.129846	-9.992213	9.663822	0.168666	26.514154	-7.040622	0.000000	0.465484	-0.719395	6.942658	7.782961	0.135838	28.655285	4.304290	0.000000	-0.037006	0.014292	-2.376480	-0.068724	0.019009	-2.525010	-0.060797	0.034750	-2.525010	-0.042294	0.034750	-2.079420	-0.034364	0.029145	-1.930890	-0.021145	0.022139	-1.782360	-0.264331	0.161678	-13.217266	0.000000	0.000000	21.472818	2.033487	4.498081	12.188554	-7.126624	71.045770	37.630722	67.652392	8.311065	-0.528139	5.182378	-4.730906	39.877988	46.929528	85.433535	13.983899	15.716618
0.033333	1.227440	-7.147663	101.338048	0.187035	0.989682	0.499193	0.976414	1.755402	-10.142207	9.816275	0.171326	26.678852	-6.982851	0.000000	0.791208	-0.420641	6.487923	7.681270	0.134063	28.775007	4.876882	0.000000	-0.016811	-0.014210	-2.244862	-0.031221	-0.018899	-2.385166	-0.027619	-0.034549	-2.385166	-0.019214	-0.034549	-1.964255	-0.015611	-0.028976	-1.823951	-0.009606	-0.022011	-1.683647	-0.120082	-0.160742	-12.485252	0.000000	0.000000	21.791786	1.536516	3.597556	12.233921	-7.315378	71.519888	37.854113	63.616482	7.700517	0.289587	5.803865	-4.922923	41.295650	46.608845	85.322025	14.620864	15.769911
0.050000	1.012617	-7.415690	101.248437	0.187115	0.989488	0.500003	1.268652	1.434962	-10.137661	9.939480	0.173477	26.777574	-6.968999	0.000000	1.075166	-0.161271	5.949259	7.634581	0.133249	28.903924	5.436584	0.000000	-0.004824	-0.042051	-2.152615	-0.008958	-0.055927	-2.287154	-0.007925	-0.102242	-2.287154	-0.005513	-0.102242	-1.883539	-0.004479	-0.085750	-1.749000	-0.002756	-0.065136	-1.614462	-0.034456	-0.475685	-11.972202	0.000000	0.000000	22.028959	1.258660	3.037427	12.370155	-7.401506	72.133467	37.974998	60.662289	7.195180	0.788368	6.163511	-5.087345	42.095496	46.485260	85.284809	15.068633	15.915698
0.066667	0.816271	-7.626198	101.135407	0.187293	0.989321	0.500685	1.504313	1.165008	-9.999553	10.035786	0.175158	26.822805	-6.986709	0.000000	1.318564	0.060882	5.343558	7.633509	0.133230	29.038830	5.976436	0.000000	-0.000117	-0.069167	-2.094346	-0.000218	-0.091992	-2.225243	-0.000193	-0.168173	-2.225243	-0.000134	-0.168173	-1.832553	-0.000109	-0.141045	-1.701656	-0.000067	-0.107140	-1.570760	-0.000838	-0.782431	-11.648126	0.000000	0.000000	22.191572	1.171004	2.768807	12.583102	-7.398665	72.861863	38.006888	58.654576	6.787219	1.008660	6.294704	-5.226126	42.356464	46.531163	85.310803	15.350289	16.141118
0.083333	0.638511	-7.784781	101.001360	0.187561	0.989182	0.501244	1.688803	0.942020	-9.748859	10.107543	0.176410	26.827034	-7.023626	0.000000	1.522611	0.247985	4.687711	7.668669	0.133844	29.176521	6.489479	0.000000	-0.001766	-0.095496	-2.064663	-0.003280	-0.127009	-2.193704	-0.002902	-0.232188	-2.193704	-0.002019	-0.232188	-1.806580	-0.001640	-0.194735	-1.677539	-0.001009	-0.147923	-1.548497	-0.012616	-1.080265	-11.483036	0.000000	0.000000	22.286865	1.244634	2.742809	12.858609	-7.320509	73.680430	37.963294	57.458108	6.468797	0.990917	6.230830	-5.341218	42.157492	46.718945	85.388925	15.488915	16.433310
0.100000	0.479445	-7.897036	100.848700	0.187909	0.989069	0.501688	1.827529	0.762479	-9.406557	10.157100	0.177275	26.802747	-7.067391	0.000000	1.688515	0.402205	3.998611	7.730675	0.134926	29.313792	6.968753	0.000000	-0.008845	-0.120973	-2.058173	-0.016425	-0.160894	-2.186809	-0.014531	-0.294134	-2.186809	-0.010108	-0.294134	-1.800902	-0.008213	-0.246688	-1.672266	-0.005054	-0.187387	-1.543630	-0.063176	-1.368470	-11.446942	0.000000	0.000000	22.322073	1.450633	2.910548	13.182523	-7.180695	74.564524	37.857728	56.937647	6.232078	0.775595	6.005276	-5.434575	41.577521	47.020997	85.508093	15.507593	16.779413
0.116667	0.339181	-7.968557	100.679829	0.188328	0.988979	0.502023	1.925896	0.622864	-8.993624	10.186807	0.177793	26.762433	-7.105650	0.000000	1.817483	0.525711	3.293150	7.810144	0.136313	29.447438	7.407296	0.000000	-0.020427	-0.145536	-2.069485	-0.037934	-0.193562	-2.198827	-0.033559	-0.353856	-2.198827	-0.023346	-0.353856	-1.810799	-0.018968	-0.296776	-1.681456	-0.011672	-0.225435	-1.552113	-0.145905	-1.646329	-11.509853	0.000000	0.000000	22.304434	1.760088	3.223138	13.540691	-6.992877	75.489500	37.703701	56.957957	6.069226	0.403149	5.651430	-5.508150	40.695490	47.409708	85.657224	15.429406	17.166565
